<mxfile host="app.diagrams.net" agent="Mozilla/5.0 (Windows NT 10.0; Win64; x64) AppleWebKit/537.36 (KHTML, like Gecko) Chrome/127.0.0.0 Safari/537.36" version="24.7.6">
  <diagram name="Page-1" id="4j48988BxTFi00ZCFyIb">
    <mxGraphModel dx="454" dy="282" grid="1" gridSize="10" guides="1" tooltips="1" connect="1" arrows="1" fold="1" page="1" pageScale="1" pageWidth="850" pageHeight="1100" math="0" shadow="0">
      <root>
        <mxCell id="0" />
        <mxCell id="1" parent="0" />
        <mxCell id="1AvRITA7LtMp0vxz8rzD-1" value="Mahasiswa" style="whiteSpace=wrap;html=1;align=center;" vertex="1" parent="1">
          <mxGeometry x="140" y="280" width="100" height="40" as="geometry" />
        </mxCell>
        <mxCell id="1AvRITA7LtMp0vxz8rzD-2" value="Mendaftar" style="shape=rhombus;perimeter=rhombusPerimeter;whiteSpace=wrap;html=1;align=center;" vertex="1" parent="1">
          <mxGeometry x="370" y="270" width="120" height="60" as="geometry" />
        </mxCell>
        <mxCell id="1AvRITA7LtMp0vxz8rzD-3" value="Anggota&lt;div&gt;Perpustakaan&lt;/div&gt;" style="whiteSpace=wrap;html=1;align=center;" vertex="1" parent="1">
          <mxGeometry x="640" y="280" width="100" height="40" as="geometry" />
        </mxCell>
        <mxCell id="1AvRITA7LtMp0vxz8rzD-5" value="" style="endArrow=none;html=1;rounded=0;exitX=1;exitY=0.5;exitDx=0;exitDy=0;entryX=0;entryY=0.5;entryDx=0;entryDy=0;" edge="1" parent="1" source="1AvRITA7LtMp0vxz8rzD-2" target="1AvRITA7LtMp0vxz8rzD-3">
          <mxGeometry relative="1" as="geometry">
            <mxPoint x="390" y="219.5" as="sourcePoint" />
            <mxPoint x="520" y="220" as="targetPoint" />
          </mxGeometry>
        </mxCell>
        <mxCell id="1AvRITA7LtMp0vxz8rzD-7" value="nama" style="ellipse;whiteSpace=wrap;html=1;align=center;" vertex="1" parent="1">
          <mxGeometry x="140" y="190" width="100" height="40" as="geometry" />
        </mxCell>
        <mxCell id="1AvRITA7LtMp0vxz8rzD-8" value="nama_tengah" style="ellipse;whiteSpace=wrap;html=1;align=center;" vertex="1" parent="1">
          <mxGeometry x="140" y="110" width="100" height="40" as="geometry" />
        </mxCell>
        <mxCell id="1AvRITA7LtMp0vxz8rzD-9" value="nama_belakang" style="ellipse;whiteSpace=wrap;html=1;align=center;" vertex="1" parent="1">
          <mxGeometry x="240" y="140" width="100" height="40" as="geometry" />
        </mxCell>
        <mxCell id="1AvRITA7LtMp0vxz8rzD-10" value="nama_depan" style="ellipse;whiteSpace=wrap;html=1;align=center;" vertex="1" parent="1">
          <mxGeometry x="40" y="140" width="100" height="40" as="geometry" />
        </mxCell>
        <mxCell id="1AvRITA7LtMp0vxz8rzD-14" value="" style="endArrow=none;html=1;rounded=0;exitX=0.5;exitY=1;exitDx=0;exitDy=0;" edge="1" parent="1" source="1AvRITA7LtMp0vxz8rzD-8" target="1AvRITA7LtMp0vxz8rzD-7">
          <mxGeometry relative="1" as="geometry">
            <mxPoint x="140" y="310" as="sourcePoint" />
            <mxPoint x="300" y="310" as="targetPoint" />
          </mxGeometry>
        </mxCell>
        <mxCell id="1AvRITA7LtMp0vxz8rzD-15" value="" style="endArrow=none;html=1;rounded=0;exitX=0.5;exitY=0;exitDx=0;exitDy=0;" edge="1" parent="1" source="1AvRITA7LtMp0vxz8rzD-7">
          <mxGeometry relative="1" as="geometry">
            <mxPoint x="140" y="310" as="sourcePoint" />
            <mxPoint x="240" y="160" as="targetPoint" />
          </mxGeometry>
        </mxCell>
        <mxCell id="1AvRITA7LtMp0vxz8rzD-16" value="" style="endArrow=none;html=1;rounded=0;exitX=1;exitY=0.5;exitDx=0;exitDy=0;entryX=0.5;entryY=0;entryDx=0;entryDy=0;" edge="1" parent="1" source="1AvRITA7LtMp0vxz8rzD-10" target="1AvRITA7LtMp0vxz8rzD-7">
          <mxGeometry relative="1" as="geometry">
            <mxPoint x="140" y="310" as="sourcePoint" />
            <mxPoint x="300" y="310" as="targetPoint" />
          </mxGeometry>
        </mxCell>
        <mxCell id="1AvRITA7LtMp0vxz8rzD-17" value="" style="endArrow=none;html=1;rounded=0;exitX=0.5;exitY=1;exitDx=0;exitDy=0;entryX=0.5;entryY=0;entryDx=0;entryDy=0;" edge="1" parent="1" source="1AvRITA7LtMp0vxz8rzD-7" target="1AvRITA7LtMp0vxz8rzD-1">
          <mxGeometry relative="1" as="geometry">
            <mxPoint x="340" y="310" as="sourcePoint" />
            <mxPoint x="500" y="310" as="targetPoint" />
          </mxGeometry>
        </mxCell>
        <mxCell id="1AvRITA7LtMp0vxz8rzD-19" value="jurusan" style="ellipse;whiteSpace=wrap;html=1;align=center;" vertex="1" parent="1">
          <mxGeometry y="280" width="80" height="40" as="geometry" />
        </mxCell>
        <mxCell id="1AvRITA7LtMp0vxz8rzD-20" value="alamat" style="ellipse;whiteSpace=wrap;html=1;align=center;" vertex="1" parent="1">
          <mxGeometry x="40" y="330" width="80" height="40" as="geometry" />
        </mxCell>
        <mxCell id="1AvRITA7LtMp0vxz8rzD-21" value="" style="endArrow=none;html=1;rounded=0;exitX=1;exitY=0.5;exitDx=0;exitDy=0;entryX=0;entryY=0.5;entryDx=0;entryDy=0;" edge="1" parent="1" source="1AvRITA7LtMp0vxz8rzD-19" target="1AvRITA7LtMp0vxz8rzD-1">
          <mxGeometry relative="1" as="geometry">
            <mxPoint x="340" y="310" as="sourcePoint" />
            <mxPoint x="500" y="310" as="targetPoint" />
          </mxGeometry>
        </mxCell>
        <mxCell id="1AvRITA7LtMp0vxz8rzD-22" value="" style="endArrow=none;html=1;rounded=0;exitX=0.68;exitY=0.925;exitDx=0;exitDy=0;exitPerimeter=0;entryX=0;entryY=0.5;entryDx=0;entryDy=0;" edge="1" parent="1" source="1AvRITA7LtMp0vxz8rzD-79" target="1AvRITA7LtMp0vxz8rzD-1">
          <mxGeometry relative="1" as="geometry">
            <mxPoint x="88" y="271" as="sourcePoint" />
            <mxPoint x="500" y="310" as="targetPoint" />
          </mxGeometry>
        </mxCell>
        <mxCell id="1AvRITA7LtMp0vxz8rzD-23" value="" style="endArrow=none;html=1;rounded=0;" edge="1" parent="1">
          <mxGeometry relative="1" as="geometry">
            <mxPoint x="140" y="300" as="sourcePoint" />
            <mxPoint x="87" y="330" as="targetPoint" />
          </mxGeometry>
        </mxCell>
        <mxCell id="1AvRITA7LtMp0vxz8rzD-24" value="alamat" style="ellipse;whiteSpace=wrap;html=1;align=center;" vertex="1" parent="1">
          <mxGeometry x="330" y="190" width="70" height="40" as="geometry" />
        </mxCell>
        <mxCell id="1AvRITA7LtMp0vxz8rzD-25" value="jurusan" style="ellipse;whiteSpace=wrap;html=1;align=center;" vertex="1" parent="1">
          <mxGeometry x="350" y="140" width="70" height="40" as="geometry" />
        </mxCell>
        <mxCell id="1AvRITA7LtMp0vxz8rzD-26" value="Attribute" style="ellipse;whiteSpace=wrap;html=1;align=center;" vertex="1" parent="1">
          <mxGeometry x="450" y="140" width="70" height="40" as="geometry" />
        </mxCell>
        <mxCell id="1AvRITA7LtMp0vxz8rzD-27" value="nama" style="ellipse;whiteSpace=wrap;html=1;align=center;" vertex="1" parent="1">
          <mxGeometry x="470" y="190" width="70" height="40" as="geometry" />
        </mxCell>
        <mxCell id="1AvRITA7LtMp0vxz8rzD-28" value="" style="endArrow=none;html=1;rounded=0;exitX=0.5;exitY=0;exitDx=0;exitDy=0;" edge="1" parent="1" source="1AvRITA7LtMp0vxz8rzD-2">
          <mxGeometry relative="1" as="geometry">
            <mxPoint x="340" y="310" as="sourcePoint" />
            <mxPoint x="396" y="220" as="targetPoint" />
          </mxGeometry>
        </mxCell>
        <mxCell id="1AvRITA7LtMp0vxz8rzD-29" value="" style="endArrow=none;html=1;rounded=0;exitX=0.5;exitY=0;exitDx=0;exitDy=0;entryX=0.029;entryY=0.675;entryDx=0;entryDy=0;entryPerimeter=0;" edge="1" parent="1" source="1AvRITA7LtMp0vxz8rzD-2" target="1AvRITA7LtMp0vxz8rzD-27">
          <mxGeometry relative="1" as="geometry">
            <mxPoint x="340" y="310" as="sourcePoint" />
            <mxPoint x="470" y="210" as="targetPoint" />
          </mxGeometry>
        </mxCell>
        <mxCell id="1AvRITA7LtMp0vxz8rzD-30" value="" style="endArrow=none;html=1;rounded=0;" edge="1" parent="1">
          <mxGeometry relative="1" as="geometry">
            <mxPoint x="430" y="270" as="sourcePoint" />
            <mxPoint x="399" y="180" as="targetPoint" />
          </mxGeometry>
        </mxCell>
        <mxCell id="1AvRITA7LtMp0vxz8rzD-31" value="" style="endArrow=none;html=1;rounded=0;exitX=0.5;exitY=0;exitDx=0;exitDy=0;entryX=0;entryY=1;entryDx=0;entryDy=0;" edge="1" parent="1" source="1AvRITA7LtMp0vxz8rzD-2" target="1AvRITA7LtMp0vxz8rzD-26">
          <mxGeometry relative="1" as="geometry">
            <mxPoint x="340" y="310" as="sourcePoint" />
            <mxPoint x="500" y="310" as="targetPoint" />
          </mxGeometry>
        </mxCell>
        <mxCell id="1AvRITA7LtMp0vxz8rzD-33" value="masa_berlaku" style="ellipse;whiteSpace=wrap;html=1;align=center;" vertex="1" parent="1">
          <mxGeometry x="710" y="200" width="100" height="40" as="geometry" />
        </mxCell>
        <mxCell id="1AvRITA7LtMp0vxz8rzD-34" value="jurusan" style="ellipse;whiteSpace=wrap;html=1;align=center;" vertex="1" parent="1">
          <mxGeometry x="690" y="150" width="100" height="40" as="geometry" />
        </mxCell>
        <mxCell id="1AvRITA7LtMp0vxz8rzD-35" value="nama" style="ellipse;whiteSpace=wrap;html=1;align=center;" vertex="1" parent="1">
          <mxGeometry x="560" y="150" width="100" height="40" as="geometry" />
        </mxCell>
        <mxCell id="1AvRITA7LtMp0vxz8rzD-36" value="" style="endArrow=none;html=1;rounded=0;exitX=1;exitY=1;exitDx=0;exitDy=0;" edge="1" parent="1">
          <mxGeometry relative="1" as="geometry">
            <mxPoint x="635.3553390593274" y="234.14213562373095" as="sourcePoint" />
            <mxPoint x="680" y="280" as="targetPoint" />
          </mxGeometry>
        </mxCell>
        <mxCell id="1AvRITA7LtMp0vxz8rzD-37" value="" style="endArrow=none;html=1;rounded=0;exitX=0.07;exitY=0.775;exitDx=0;exitDy=0;exitPerimeter=0;" edge="1" parent="1" source="1AvRITA7LtMp0vxz8rzD-33">
          <mxGeometry relative="1" as="geometry">
            <mxPoint x="717" y="234" as="sourcePoint" />
            <mxPoint x="680" y="280" as="targetPoint" />
          </mxGeometry>
        </mxCell>
        <mxCell id="1AvRITA7LtMp0vxz8rzD-39" value="" style="endArrow=none;html=1;rounded=0;entryX=1;entryY=1;entryDx=0;entryDy=0;" edge="1" parent="1" target="1AvRITA7LtMp0vxz8rzD-35">
          <mxGeometry relative="1" as="geometry">
            <mxPoint x="680" y="280" as="sourcePoint" />
            <mxPoint x="500" y="310" as="targetPoint" />
          </mxGeometry>
        </mxCell>
        <mxCell id="1AvRITA7LtMp0vxz8rzD-40" value="" style="endArrow=none;html=1;rounded=0;entryX=0;entryY=1;entryDx=0;entryDy=0;exitX=0.42;exitY=-0.075;exitDx=0;exitDy=0;exitPerimeter=0;" edge="1" parent="1" source="1AvRITA7LtMp0vxz8rzD-3" target="1AvRITA7LtMp0vxz8rzD-34">
          <mxGeometry relative="1" as="geometry">
            <mxPoint x="680" y="270" as="sourcePoint" />
            <mxPoint x="500" y="310" as="targetPoint" />
          </mxGeometry>
        </mxCell>
        <mxCell id="1AvRITA7LtMp0vxz8rzD-43" value="Meminjam" style="shape=rhombus;perimeter=rhombusPerimeter;whiteSpace=wrap;html=1;align=center;" vertex="1" parent="1">
          <mxGeometry x="630" y="450" width="120" height="60" as="geometry" />
        </mxCell>
        <mxCell id="1AvRITA7LtMp0vxz8rzD-44" value="kode_peminjaman" style="ellipse;whiteSpace=wrap;html=1;align=center;" vertex="1" parent="1">
          <mxGeometry x="560" y="390" width="100" height="40" as="geometry" />
        </mxCell>
        <mxCell id="1AvRITA7LtMp0vxz8rzD-45" value="tanggal_kembali" style="ellipse;whiteSpace=wrap;html=1;align=center;" vertex="1" parent="1">
          <mxGeometry x="530" y="440" width="100" height="40" as="geometry" />
        </mxCell>
        <mxCell id="1AvRITA7LtMp0vxz8rzD-46" value="tanggal_pinjam" style="ellipse;whiteSpace=wrap;html=1;align=center;" vertex="1" parent="1">
          <mxGeometry x="530" y="490" width="100" height="40" as="geometry" />
        </mxCell>
        <mxCell id="1AvRITA7LtMp0vxz8rzD-49" value="judul_buku" style="ellipse;whiteSpace=wrap;html=1;align=center;" vertex="1" parent="1">
          <mxGeometry x="750" y="490" width="100" height="40" as="geometry" />
        </mxCell>
        <mxCell id="1AvRITA7LtMp0vxz8rzD-50" value="denda" style="ellipse;whiteSpace=wrap;html=1;align=center;" vertex="1" parent="1">
          <mxGeometry x="720" y="540" width="100" height="40" as="geometry" />
        </mxCell>
        <mxCell id="1AvRITA7LtMp0vxz8rzD-52" value="" style="endArrow=none;html=1;rounded=0;entryX=0.3;entryY=1;entryDx=0;entryDy=0;entryPerimeter=0;exitX=1;exitY=0;exitDx=0;exitDy=0;" edge="1" parent="1" source="1AvRITA7LtMp0vxz8rzD-43">
          <mxGeometry relative="1" as="geometry">
            <mxPoint x="731" y="460" as="sourcePoint" />
            <mxPoint x="750" y="430" as="targetPoint" />
          </mxGeometry>
        </mxCell>
        <mxCell id="1AvRITA7LtMp0vxz8rzD-53" value="" style="endArrow=none;html=1;rounded=0;exitX=0;exitY=0.5;exitDx=0;exitDy=0;entryX=1;entryY=0;entryDx=0;entryDy=0;" edge="1" parent="1" target="1AvRITA7LtMp0vxz8rzD-43">
          <mxGeometry relative="1" as="geometry">
            <mxPoint x="750" y="460" as="sourcePoint" />
            <mxPoint x="640" y="510" as="targetPoint" />
          </mxGeometry>
        </mxCell>
        <mxCell id="1AvRITA7LtMp0vxz8rzD-54" value="" style="endArrow=none;html=1;rounded=0;entryX=0;entryY=0;entryDx=0;entryDy=0;" edge="1" parent="1" target="1AvRITA7LtMp0vxz8rzD-49">
          <mxGeometry relative="1" as="geometry">
            <mxPoint x="730" y="490" as="sourcePoint" />
            <mxPoint x="640" y="510" as="targetPoint" />
          </mxGeometry>
        </mxCell>
        <mxCell id="1AvRITA7LtMp0vxz8rzD-55" value="" style="endArrow=none;html=1;rounded=0;exitX=0.5;exitY=0;exitDx=0;exitDy=0;entryX=0.842;entryY=0.667;entryDx=0;entryDy=0;entryPerimeter=0;" edge="1" parent="1" source="1AvRITA7LtMp0vxz8rzD-50" target="1AvRITA7LtMp0vxz8rzD-43">
          <mxGeometry relative="1" as="geometry">
            <mxPoint x="480" y="510" as="sourcePoint" />
            <mxPoint x="720" y="490" as="targetPoint" />
          </mxGeometry>
        </mxCell>
        <mxCell id="1AvRITA7LtMp0vxz8rzD-56" value="" style="endArrow=none;html=1;rounded=0;entryX=0;entryY=0;entryDx=0;entryDy=0;exitX=0.73;exitY=0.975;exitDx=0;exitDy=0;exitPerimeter=0;" edge="1" parent="1" source="1AvRITA7LtMp0vxz8rzD-44" target="1AvRITA7LtMp0vxz8rzD-43">
          <mxGeometry relative="1" as="geometry">
            <mxPoint x="631" y="432" as="sourcePoint" />
            <mxPoint x="640" y="510" as="targetPoint" />
          </mxGeometry>
        </mxCell>
        <mxCell id="1AvRITA7LtMp0vxz8rzD-57" value="" style="endArrow=none;html=1;rounded=0;entryX=0.075;entryY=0.433;entryDx=0;entryDy=0;entryPerimeter=0;" edge="1" parent="1" source="1AvRITA7LtMp0vxz8rzD-45" target="1AvRITA7LtMp0vxz8rzD-43">
          <mxGeometry relative="1" as="geometry">
            <mxPoint x="626" y="472" as="sourcePoint" />
            <mxPoint x="640" y="510" as="targetPoint" />
          </mxGeometry>
        </mxCell>
        <mxCell id="1AvRITA7LtMp0vxz8rzD-58" value="" style="endArrow=none;html=1;rounded=0;exitX=1;exitY=0;exitDx=0;exitDy=0;entryX=0.117;entryY=0.617;entryDx=0;entryDy=0;entryPerimeter=0;" edge="1" parent="1" source="1AvRITA7LtMp0vxz8rzD-46" target="1AvRITA7LtMp0vxz8rzD-43">
          <mxGeometry relative="1" as="geometry">
            <mxPoint x="480" y="510" as="sourcePoint" />
            <mxPoint x="641" y="483" as="targetPoint" />
          </mxGeometry>
        </mxCell>
        <mxCell id="1AvRITA7LtMp0vxz8rzD-59" value="Buku" style="whiteSpace=wrap;html=1;align=center;" vertex="1" parent="1">
          <mxGeometry x="640" y="680" width="100" height="40" as="geometry" />
        </mxCell>
        <mxCell id="1AvRITA7LtMp0vxz8rzD-60" value="pengarang" style="ellipse;whiteSpace=wrap;html=1;align=center;" vertex="1" parent="1">
          <mxGeometry x="740" y="720" width="100" height="40" as="geometry" />
        </mxCell>
        <mxCell id="1AvRITA7LtMp0vxz8rzD-61" value="jenis_buku" style="ellipse;whiteSpace=wrap;html=1;align=center;" vertex="1" parent="1">
          <mxGeometry x="720" y="770" width="100" height="40" as="geometry" />
        </mxCell>
        <mxCell id="1AvRITA7LtMp0vxz8rzD-62" value="penerbit" style="ellipse;whiteSpace=wrap;html=1;align=center;" vertex="1" parent="1">
          <mxGeometry x="670" y="830" width="100" height="40" as="geometry" />
        </mxCell>
        <mxCell id="1AvRITA7LtMp0vxz8rzD-63" value="tahun_terbit" style="ellipse;whiteSpace=wrap;html=1;align=center;" vertex="1" parent="1">
          <mxGeometry x="550" y="820" width="100" height="40" as="geometry" />
        </mxCell>
        <mxCell id="1AvRITA7LtMp0vxz8rzD-65" value="judul_buku" style="ellipse;whiteSpace=wrap;html=1;align=center;" vertex="1" parent="1">
          <mxGeometry x="510" y="720" width="100" height="40" as="geometry" />
        </mxCell>
        <mxCell id="1AvRITA7LtMp0vxz8rzD-66" value="" style="endArrow=none;html=1;rounded=0;" edge="1" parent="1" source="1AvRITA7LtMp0vxz8rzD-65">
          <mxGeometry relative="1" as="geometry">
            <mxPoint x="480" y="610" as="sourcePoint" />
            <mxPoint x="680" y="720" as="targetPoint" />
          </mxGeometry>
        </mxCell>
        <mxCell id="1AvRITA7LtMp0vxz8rzD-67" value="" style="endArrow=none;html=1;rounded=0;exitX=1;exitY=0.5;exitDx=0;exitDy=0;" edge="1" parent="1">
          <mxGeometry relative="1" as="geometry">
            <mxPoint x="590" y="790" as="sourcePoint" />
            <mxPoint x="680" y="720" as="targetPoint" />
          </mxGeometry>
        </mxCell>
        <mxCell id="1AvRITA7LtMp0vxz8rzD-68" value="" style="endArrow=none;html=1;rounded=0;exitX=0.6;exitY=0;exitDx=0;exitDy=0;exitPerimeter=0;" edge="1" parent="1" source="1AvRITA7LtMp0vxz8rzD-63">
          <mxGeometry relative="1" as="geometry">
            <mxPoint x="480" y="610" as="sourcePoint" />
            <mxPoint x="680" y="720" as="targetPoint" />
          </mxGeometry>
        </mxCell>
        <mxCell id="1AvRITA7LtMp0vxz8rzD-69" value="" style="endArrow=none;html=1;rounded=0;exitX=0.5;exitY=0;exitDx=0;exitDy=0;" edge="1" parent="1" source="1AvRITA7LtMp0vxz8rzD-62">
          <mxGeometry relative="1" as="geometry">
            <mxPoint x="480" y="610" as="sourcePoint" />
            <mxPoint x="680" y="720" as="targetPoint" />
          </mxGeometry>
        </mxCell>
        <mxCell id="1AvRITA7LtMp0vxz8rzD-70" value="" style="endArrow=none;html=1;rounded=0;" edge="1" parent="1" target="1AvRITA7LtMp0vxz8rzD-61">
          <mxGeometry relative="1" as="geometry">
            <mxPoint x="680" y="720" as="sourcePoint" />
            <mxPoint x="640" y="610" as="targetPoint" />
          </mxGeometry>
        </mxCell>
        <mxCell id="1AvRITA7LtMp0vxz8rzD-71" value="" style="endArrow=none;html=1;rounded=0;exitX=0.05;exitY=0.3;exitDx=0;exitDy=0;exitPerimeter=0;" edge="1" parent="1" source="1AvRITA7LtMp0vxz8rzD-60">
          <mxGeometry relative="1" as="geometry">
            <mxPoint x="740" y="730" as="sourcePoint" />
            <mxPoint x="670" y="720" as="targetPoint" />
          </mxGeometry>
        </mxCell>
        <mxCell id="1AvRITA7LtMp0vxz8rzD-74" value="" style="endArrow=none;html=1;rounded=0;entryX=0;entryY=0.5;entryDx=0;entryDy=0;" edge="1" parent="1" target="1AvRITA7LtMp0vxz8rzD-2">
          <mxGeometry relative="1" as="geometry">
            <mxPoint x="240" y="299.5" as="sourcePoint" />
            <mxPoint x="400" y="299.5" as="targetPoint" />
          </mxGeometry>
        </mxCell>
        <mxCell id="1AvRITA7LtMp0vxz8rzD-75" value="nomor_buku" style="ellipse;whiteSpace=wrap;html=1;align=center;fontStyle=4;" vertex="1" parent="1">
          <mxGeometry x="490" y="770" width="100" height="40" as="geometry" />
        </mxCell>
        <mxCell id="1AvRITA7LtMp0vxz8rzD-76" value="nomor_buku" style="ellipse;whiteSpace=wrap;html=1;align=center;fontStyle=4;" vertex="1" parent="1">
          <mxGeometry x="750" y="440" width="100" height="40" as="geometry" />
        </mxCell>
        <mxCell id="1AvRITA7LtMp0vxz8rzD-77" value="nomor_anggota" style="ellipse;whiteSpace=wrap;html=1;align=center;fontStyle=4;" vertex="1" parent="1">
          <mxGeometry x="720" y="390" width="100" height="40" as="geometry" />
        </mxCell>
        <mxCell id="1AvRITA7LtMp0vxz8rzD-78" value="nomor_anggota" style="ellipse;whiteSpace=wrap;html=1;align=center;fontStyle=4;" vertex="1" parent="1">
          <mxGeometry x="540" y="210" width="100" height="40" as="geometry" />
        </mxCell>
        <mxCell id="1AvRITA7LtMp0vxz8rzD-79" value="nim" style="ellipse;whiteSpace=wrap;html=1;align=center;fontStyle=4;" vertex="1" parent="1">
          <mxGeometry x="20" y="230" width="100" height="40" as="geometry" />
        </mxCell>
        <mxCell id="1AvRITA7LtMp0vxz8rzD-81" value="Many" style="text;strokeColor=none;fillColor=none;spacingLeft=4;spacingRight=4;overflow=hidden;rotatable=0;points=[[0,0.5],[1,0.5]];portConstraint=eastwest;fontSize=12;whiteSpace=wrap;html=1;" vertex="1" parent="1">
          <mxGeometry x="290" y="300" width="40" height="30" as="geometry" />
        </mxCell>
        <mxCell id="1AvRITA7LtMp0vxz8rzD-82" value="&lt;span style=&quot;color: rgb(0, 0, 0); font-family: Helvetica; font-size: 12px; font-style: normal; font-variant-ligatures: normal; font-variant-caps: normal; font-weight: 400; letter-spacing: normal; orphans: 2; text-align: left; text-indent: 0px; text-transform: none; widows: 2; word-spacing: 0px; -webkit-text-stroke-width: 0px; white-space: normal; background-color: rgb(251, 251, 251); text-decoration-thickness: initial; text-decoration-style: initial; text-decoration-color: initial; display: inline !important; float: none;&quot;&gt;Many&lt;/span&gt;" style="text;whiteSpace=wrap;html=1;" vertex="1" parent="1">
          <mxGeometry x="550" y="310" width="60" height="40" as="geometry" />
        </mxCell>
        <mxCell id="1AvRITA7LtMp0vxz8rzD-83" value="1" style="text;whiteSpace=wrap;html=1;" vertex="1" parent="1">
          <mxGeometry x="673" y="380" width="17" height="20" as="geometry" />
        </mxCell>
        <mxCell id="1AvRITA7LtMp0vxz8rzD-84" value="" style="endArrow=none;html=1;rounded=0;exitX=0.43;exitY=1.075;exitDx=0;exitDy=0;exitPerimeter=0;entryX=0.5;entryY=0.333;entryDx=0;entryDy=0;entryPerimeter=0;" edge="1" parent="1" source="1AvRITA7LtMp0vxz8rzD-3" target="1AvRITA7LtMp0vxz8rzD-83">
          <mxGeometry relative="1" as="geometry">
            <mxPoint x="420" y="390" as="sourcePoint" />
            <mxPoint x="580" y="390" as="targetPoint" />
          </mxGeometry>
        </mxCell>
        <mxCell id="1AvRITA7LtMp0vxz8rzD-86" value="" style="endArrow=none;html=1;rounded=0;entryX=0.5;entryY=1;entryDx=0;entryDy=0;exitX=0.433;exitY=0.05;exitDx=0;exitDy=0;exitPerimeter=0;" edge="1" parent="1" source="1AvRITA7LtMp0vxz8rzD-43" target="1AvRITA7LtMp0vxz8rzD-83">
          <mxGeometry relative="1" as="geometry">
            <mxPoint x="360" y="420" as="sourcePoint" />
            <mxPoint x="520" y="420" as="targetPoint" />
          </mxGeometry>
        </mxCell>
        <mxCell id="1AvRITA7LtMp0vxz8rzD-87" value="&lt;span style=&quot;color: rgb(0, 0, 0); font-family: Helvetica; font-size: 12px; font-style: normal; font-variant-ligatures: normal; font-variant-caps: normal; font-weight: 400; letter-spacing: normal; orphans: 2; text-align: left; text-indent: 0px; text-transform: none; widows: 2; word-spacing: 0px; -webkit-text-stroke-width: 0px; white-space: normal; background-color: rgb(251, 251, 251); text-decoration-thickness: initial; text-decoration-style: initial; text-decoration-color: initial; display: inline !important; float: none;&quot;&gt;Many&lt;/span&gt;" style="text;whiteSpace=wrap;html=1;" vertex="1" parent="1">
          <mxGeometry x="673" y="560" width="30" height="20" as="geometry" />
        </mxCell>
        <mxCell id="1AvRITA7LtMp0vxz8rzD-88" value="" style="endArrow=none;html=1;rounded=0;exitX=0.5;exitY=1;exitDx=0;exitDy=0;" edge="1" parent="1" source="1AvRITA7LtMp0vxz8rzD-43">
          <mxGeometry relative="1" as="geometry">
            <mxPoint x="680" y="500" as="sourcePoint" />
            <mxPoint x="690" y="560" as="targetPoint" />
            <Array as="points" />
          </mxGeometry>
        </mxCell>
        <mxCell id="1AvRITA7LtMp0vxz8rzD-89" value="" style="endArrow=none;html=1;rounded=0;exitX=0.5;exitY=1;exitDx=0;exitDy=0;entryX=0.484;entryY=-0.074;entryDx=0;entryDy=0;entryPerimeter=0;" edge="1" parent="1" source="1AvRITA7LtMp0vxz8rzD-87" target="1AvRITA7LtMp0vxz8rzD-59">
          <mxGeometry relative="1" as="geometry">
            <mxPoint x="640" y="640" as="sourcePoint" />
            <mxPoint x="800" y="640" as="targetPoint" />
          </mxGeometry>
        </mxCell>
      </root>
    </mxGraphModel>
  </diagram>
</mxfile>
